<svg width="1830" height="589" viewBox="0 0 1830 589" fill="none" xmlns="http://www.w3.org/2000/svg">
<!-- J -->
<path d="M150 463.22V234.86C150 219.948 162.08 207.86 177 207.86H200.88V380.22C200.88 410.62 207.88 433.22 221.88 447.98C235.88 462.74 256.36 470.12 283.32 470.12C310.28 470.12 330.76 462.74 344.76 447.98C358.76 433.22 365.76 410.62 365.76 380.22V234.86C365.76 219.948 377.85 207.86 392.76 207.86H416.64V380.22C416.64 415.86 410.56 445.58 398.4 469.38C386.24 492.86 368.48 510.78 345.12 523.14C321.76 535.18 294.16 541.2 262.32 541.2C230.48 541.2 202.88 535.18 179.52 523.14C156.16 510.78 138.4 492.86 126.24 469.38C114.08 445.58 108 415.86 108 380.22V234.86C108 219.948 120.09 207.86 135 207.86H150Z" fill="white"/>

<!-- K -->
<path d="M480 463.22V134.86C480 119.948 492.08 107.86 507 107.86H530.88V302.5L605.52 234.25C613.84 226.25 625.36 222.25 639.08 222.25H672.24L582.96 302.98L680.4 456.82C686.08 464.82 684.32 475.66 676.32 481.34C670.8 485.54 663.68 486.82 657.12 485.82H628.8L553.68 363.78L530.88 385.02V463.22H507C492.08 463.22 480 451.131 480 436.22V463.22Z" fill="white"/>

<!-- T -->
<path d="M720 260.86V463.22H693.12C678.209 463.22 666.12 451.131 666.12 436.22V260.86H626.88C611.969 260.86 599.88 248.771 599.88 233.86V207.86H789.12V233.86C789.12 248.771 777.031 260.86 762.12 260.86H720Z" fill="white"/>

<!-- 4 -->
<path d="M850 340.22H920V234.86C920 219.948 932.08 207.86 947 207.86H970.88V340.22H1020.88C1035.79 340.22 1047.88 352.309 1047.88 367.22V390.22H970.88V463.22H947C932.08 463.22 920 451.131 920 436.22V390.22H850V463.22H826.12C811.209 463.22 799.12 451.131 799.12 436.22V367.22C799.12 352.309 811.209 340.22 826.12 340.22H850ZM850 312.98V250.1L920 312.98H850Z" fill="white"/>

<!-- 8 -->
<path d="M1120 468.98C1095.36 468.98 1075.16 462.82 1099.52 451.5C1123.88 440.18 1141.52 424.18 1152.44 403.5C1163.36 382.82 1168.82 359.38 1168.82 333.18C1168.82 312.82 1165.62 295.02 1159.22 279.78C1152.82 264.22 1143.86 252.22 1132.34 243.78C1145.46 237.06 1155.86 226.98 1163.54 213.54C1171.54 199.78 1175.54 184.22 1175.54 166.86C1175.54 143.82 1170.42 123.94 1160.18 107.22C1150.26 90.18 1135.86 77.38 1116.98 68.82C1098.42 60.26 1076.34 55.98 1050.74 55.98C1025.14 55.98 1003.06 60.26 984.5 68.82C965.94 77.38 951.54 90.18 941.3 107.22C931.38 123.94 926.42 143.82 926.42 166.86C926.42 184.22 930.42 199.78 938.42 213.54C946.42 226.98 956.82 237.06 969.62 243.78C958.42 252.22 949.62 264.22 943.22 279.78C936.82 295.02 933.62 312.82 933.62 333.18C933.62 359.38 939.08 382.82 949.86 403.5C960.98 424.18 976.66 440.18 996.9 451.5C1017.46 462.82 1041.82 468.98 1069.98 468.98H1120ZM1050.74 406.82C1065.78 406.82 1077.94 403.3 1087.22 396.26C1096.82 389.22 1101.62 379.06 1101.62 365.78C1101.62 352.18 1096.82 341.94 1087.22 335.06C1077.94 328.18 1065.78 324.74 1050.74 324.74C1035.7 324.74 1023.38 328.18 1013.78 335.06C1004.5 341.94 999.86 352.18 999.86 365.78C999.86 379.06 1004.5 389.22 1013.78 396.26C1023.38 403.3 1035.7 406.82 1050.74 406.82ZM1050.74 246.5C1063.38 246.5 1073.54 243.7 1081.22 238.1C1089.22 232.18 1093.22 223.78 1093.22 212.9C1093.22 201.7 1089.22 193.14 1081.22 187.22C1073.54 181.3 1063.38 178.34 1050.74 178.34C1038.1 178.34 1027.78 181.3 1019.78 187.22C1012.1 193.14 1008.26 201.7 1008.26 212.9C1008.26 223.78 1012.1 232.18 1019.78 238.1C1027.78 243.7 1038.1 246.5 1050.74 246.5Z" fill="white"/>

<!-- Connect Text -->
<path d="M1250 350.42C1225.36 350.42 1204.88 345.3 1189.56 335.06C1174.56 324.82 1164.32 310.74 1159.16 292.82C1154 274.58 1154.32 253.46 1159.16 229.46L1186.04 237.78C1183.48 253.78 1184.12 266.66 1187.96 276.42C1191.8 285.86 1198.68 292.34 1208.6 295.86C1218.84 299.06 1233.24 300.66 1251.8 300.66C1270.04 300.66 1284.28 299.06 1294.52 295.86C1305.08 292.34 1312.28 285.86 1316.12 276.42C1320.28 266.66 1320.92 253.78 1318.36 237.78L1345.24 229.46C1350.08 253.46 1350.4 274.58 1345.24 292.82C1340.08 310.74 1329.84 324.82 1314.84 335.06C1299.52 345.3 1278.72 350.42 1252.44 350.42H1250Z" fill="white"/>

<path d="M1380 468.98C1355.36 468.98 1334.88 463.54 1318.56 452.66C1302.56 441.78 1290.88 426.26 1283.52 406.1C1276.48 385.94 1273.96 362.42 1273.96 335.54C1273.96 308.66 1276.48 285.3 1283.52 265.46C1290.88 245.3 1302.56 229.78 1318.56 218.9C1334.88 207.7 1355.36 202.1 1380 202.1C1404.64 202.1 1425.12 207.7 1441.12 218.9C1457.44 229.78 1469.12 245.3 1476.16 265.46C1483.52 285.3 1486.2 308.66 1486.2 335.54C1486.2 362.42 1483.52 385.94 1476.16 406.1C1469.12 426.26 1457.44 441.78 1441.12 452.66C1425.12 463.54 1404.64 468.98 1380 468.98ZM1380 424.82C1401.44 424.82 1418.08 416.98 1429.92 401.3C1441.76 385.3 1447.68 363.38 1447.68 335.54C1447.68 307.7 1441.76 285.94 1429.92 270.26C1418.08 254.26 1401.44 246.26 1380 246.26C1358.56 246.26 1341.76 254.26 1329.6 270.26C1317.76 285.94 1311.84 307.7 1311.84 335.54C1311.84 363.38 1317.76 385.3 1329.6 401.3C1341.76 416.98 1358.56 424.82 1380 424.82Z" fill="white"/>

<path d="M1540 463.22V207.86H1560.31C1574.93 207.86 1586.89 219.49 1587.3 234.099L1588.48 276.02L1582.24 272.66C1585.12 256.02 1590.56 242.58 1598.56 232.34C1606.56 222.1 1616.32 214.58 1627.84 209.78C1639.36 204.66 1651.84 202.1 1665.28 202.1C1684.48 202.1 1700.32 206.42 1712.8 215.06C1725.6 223.38 1735.2 234.9 1741.6 249.62C1748.32 264.02 1751.68 280.5 1751.68 299.06V463.22H1727.8C1712.89 463.22 1700.8 451.131 1700.8 436.22V314.42C1700.8 299.38 1699.2 286.74 1696 276.5C1692.8 266.26 1687.52 258.42 1680.16 252.98C1672.8 247.54 1663.2 244.82 1651.36 244.82C1633.44 244.82 1618.88 250.74 1607.68 262.58C1596.48 274.42 1590.88 291.7 1590.88 314.42V463.22H1540Z" fill="white"/>

<path d="M1830 463.22V207.86H1777.12V260.86H1720.32V207.86H1667.44V463.22H1720.32V340.22H1777.12V463.22H1830Z" fill="white"/>

<!-- Decorative connecting element -->
<circle cx="1200" cy="500" r="8" fill="#FF6B9D"/>
<circle cx="1220" cy="520" r="6" fill="#FF6B9D"/>
<circle cx="1180" cy="520" r="6" fill="#FF6B9D"/>
<line x1="1200" y1="500" x2="1220" y2="520" stroke="#FF6B9D" stroke-width="2"/>
<line x1="1200" y1="500" x2="1180" y2="520" stroke="#FF6B9D" stroke-width="2"/>
</svg>
